<?xml version="1.0" encoding="UTF-8"?>
<!DOCTYPE svg PUBLIC "-//W3C//DTD SVG 1.1//EN" "http://www.w3.org/Graphics/SVG/1.1/DTD/svg11.dtd">
<!-- Creator: CorelDRAW 2021 (64-Bit) -->
<svg xmlns="http://www.w3.org/2000/svg" xml:space="preserve" width="18.6266mm" height="18.6266mm" version="1.1" style="shape-rendering:geometricPrecision; text-rendering:geometricPrecision; image-rendering:optimizeQuality; fill-rule:evenodd; clip-rule:evenodd"
viewBox="0 0 1862.66 1862.66"
 xmlns:xlink="http://www.w3.org/1999/xlink"
 xmlns:xodm="http://www.corel.com/coreldraw/odm/2003">
 <defs>
  <style type="text/css">
   <![CDATA[
    .str0 {stroke:white;stroke-width:8.47;stroke-miterlimit:22.9256}
    .fil0 {fill:#4D4D4D}
   ]]>
  </style>
 </defs>
 <g id="Layer_x0020_1">
  <metadata id="CorelCorpID_0Corel-Layer"/>
  <g id="_1896951086304">
   <path class="fil0 str0" d="M656.24 1463.93c20.41,13.73 372.72,107.36 407.36,107.76 80.13,0.92 119.55,-60.41 155.36,-97.04l259.28 -259.6c37.85,-37.4 101.86,-76.65 93.72,-164.48 -4.19,-45.24 -39.15,-156.5 -52.54,-203.19 -18.87,-65.82 -43.13,-145.97 -54.6,-210.14 -81.88,-8.07 -129.39,-34.81 -175.26,-78.93 -56.05,-53.92 -63.26,-75.85 -88.22,-166.59 -82.83,-17.87 -168.2,-44.74 -249.36,-65.57 -82.03,-21.05 -180.29,-68.1 -246.42,-0.63 -108.09,110.27 -212.05,213.16 -321.17,321.87 -138.73,138.21 -104.18,131.36 -16.06,459.99 5.99,22.32 10.46,40.5 16.03,63.39 20.84,85.51 42.88,19.36 147.68,93.94 108.08,76.9 101.28,172.52 124.2,199.22z"/>
   <path class="fil0 str0" d="M1524.59 638.88c13.72,100.13 109.78,365.64 110.09,438.52 0.37,86.07 -65.5,128.5 -104.76,167.43l-274.17 273.91c-180.39,182.13 -142.5,121.09 -602.16,7.62 -12.79,19.11 -14.48,51.42 -23.95,75.24 -11.43,28.71 -24.38,44.44 -36.44,68.38 119.8,20.07 446.35,139.78 542.13,129.6 91.62,-9.75 154.91,-93.17 198.84,-136.65l336.11 -336.25c45.84,-45.86 126.69,-106.47 130.64,-205.44 3.09,-77.19 -112.06,-420.57 -134,-544.01 -30,12.29 -38.08,22.83 -67.32,35.59 -22.45,9.81 -54.34,14.51 -75.01,26.06z"/>
   <path class="fil0 str0" d="M191.86 1268.99c26.29,-10.94 36.85,-25.01 68.56,-36.62 22.59,-8.27 56.15,-10.61 75.13,-23.42 -18.78,-69.61 -109.43,-379.76 -107.46,-431.25 3.09,-81.12 70.39,-126.08 108.31,-163.69l270.58 -270.21c34.77,-34.35 85.5,-106.5 156.44,-114.96 64.41,-7.67 352.61,85.2 438.27,104.07 6.14,-70.24 25.96,-93.95 48.41,-144.32 -87.48,-27.22 -456.52,-134.57 -529.43,-125.63 -85.43,10.48 -149.51,94.66 -192.05,136.69l-332.61 332.47c-45.14,44.88 -127.24,106.1 -134.08,201.97 -4.13,57.97 43.05,207.83 59.93,268.3 20.85,74.7 59.03,193.53 70,266.6z"/>
   <path class="fil0 str0" d="M1436.27 132.31c-301.41,68.97 -195.91,509.61 99.15,445.16 288.68,-63.04 196.61,-512.82 -99.15,-445.16z"/>
   <path class="fil0 str0" d="M319.35 1273.23c-300.98,66.04 -195.61,517.42 104.16,443.51 280.15,-69.07 193.73,-508.88 -104.16,-443.51z"/>
  </g>
 </g>
</svg>
