<?xml version="1.0" encoding="UTF-8"?>
<!DOCTYPE svg PUBLIC "-//W3C//DTD SVG 1.1//EN" "http://www.w3.org/Graphics/SVG/1.1/DTD/svg11.dtd">
<!-- Creator: CorelDRAW 2021 (64-Bit) -->
<svg xmlns="http://www.w3.org/2000/svg" xml:space="preserve" width="457.2mm" height="83.82mm" version="1.1" style="shape-rendering:geometricPrecision; text-rendering:geometricPrecision; image-rendering:optimizeQuality; fill-rule:evenodd; clip-rule:evenodd"
viewBox="0 0 45720 8382"
 xmlns:xlink="http://www.w3.org/1999/xlink"
 xmlns:xodm="http://www.corel.com/coreldraw/odm/2003">
 <defs>
  <style type="text/css">
   <![CDATA[
    .fil0 {fill:white}
    .fil1 {fill:white;fill-rule:nonzero}
   ]]>
  </style>
 </defs>
 <g id="Layer_x0020_1">
  <metadata id="CorelCorpID_0Corel-Layer"/>
  <g id="_1896951869152">
   <path class="fil0" d="M2922.27 6732.94c97.39,65.55 1778.85,512.43 1944.17,514.32 382.45,4.41 570.56,-288.3 741.49,-463.15l1237.46 -1238.95c180.61,-178.51 486.14,-365.83 447.29,-785.02 -20.02,-215.92 -186.88,-746.92 -250.77,-969.76 -90.06,-314.1 -205.87,-696.66 -260.58,-1002.89 -390.81,-38.52 -617.56,-166.15 -836.45,-376.71 -267.49,-257.33 -301.94,-362.01 -421.04,-795.08 -395.34,-85.28 -802.78,-213.53 -1190.13,-312.94 -391.46,-100.44 -860.42,-325.02 -1176.08,-3.01 -515.84,526.26 -1012.03,1017.34 -1532.81,1536.19 -662.1,659.58 -497.22,626.91 -76.63,2195.32 28.59,106.54 49.89,193.3 76.5,302.56 99.46,408.11 204.64,92.41 704.82,448.32 515.84,367.03 483.38,823.38 592.76,950.8z"/>
   <path class="fil0" d="M7066.58 2795.32c65.47,477.86 523.96,1745.07 525.44,2092.86 1.73,410.78 -312.65,613.31 -500.02,799.12l-1308.49 1307.25c-860.95,869.24 -680.09,577.93 -2873.89,36.38 -61.06,91.21 -69.09,245.38 -114.32,359.08 -54.55,137.03 -116.35,212.09 -173.9,326.37 571.74,95.79 2130.27,667.08 2587.4,618.51 437.23,-46.51 739.3,-444.65 948.96,-652.17l1604.16 -1604.82c218.77,-218.85 604.63,-508.14 623.5,-980.48 14.74,-368.39 -534.84,-2007.21 -639.56,-2596.34 -143.17,58.67 -181.73,108.93 -321.31,169.86 -107.11,46.8 -259.3,69.22 -357.97,124.38z"/>
   <path class="fil0" d="M705.94 5802.57c125.49,-52.2 175.87,-119.35 327.23,-174.76 107.82,-39.47 268,-50.63 358.55,-111.77 -89.61,-332.22 -522.27,-1812.47 -512.87,-2058.21 14.79,-387.14 335.97,-601.7 516.95,-781.2l1291.35 -1289.62c165.95,-163.97 408.07,-508.31 746.63,-548.68 307.42,-36.62 1682.9,406.63 2091.71,496.68 29.33,-335.22 123.92,-448.4 231.04,-688.79 -417.5,-129.89 -2178.8,-642.23 -2526.76,-599.55 -407.74,50.01 -713.55,451.78 -916.57,652.37l-1587.45 1586.74c-215.42,214.19 -607.26,506.37 -639.88,963.91 -19.74,276.69 205.45,991.89 285.99,1280.52 99.54,356.49 281.76,923.62 334.08,1272.36z"/>
   <path class="fil0" d="M6645.05 377.65c-1438.52,329.14 -934.99,2432.17 473.24,2124.59 1377.74,-300.91 938.32,-2447.54 -473.24,-2124.59z"/>
   <path class="fil0" d="M1314.43 5822.8c-1436.49,315.2 -933.59,2469.49 497.1,2116.75 1337.04,-329.66 924.61,-2428.7 -497.1,-2116.75z"/>
   <polygon class="fil1" points="15006.04,7159.36 16410.51,2258.67 15075.76,2258.67 14328.71,5406.27 13561.73,2258.67 12246.91,2258.67 11569.58,5406.27 10772.72,2258.67 9408.09,2258.67 10802.6,7159.36 12127.38,7159.36 12904.32,4310.58 13681.26,7159.36 "/>
   <path id="_1" class="fil1" d="M19319.05 5296.7c-9.96,577.72 -508,1065.8 -1175.37,1065.8 -408.39,0 -627.53,-179.29 -627.53,-547.84 0,-418.35 239.06,-627.53 976.15,-766.98 478.12,-89.65 707.22,-159.37 836.71,-288.86l-9.96 537.88zm1304.86 1862.66l0 -3097.8c0,-1235.13 -537.89,-1932.38 -2091.76,-1932.38 -1573.8,0 -2131.61,707.21 -2151.53,1723.21l1205.25 0c59.77,-438.28 298.83,-727.14 886.51,-727.14 508,0 826.74,189.26 826.74,508 0,338.67 -179.29,468.16 -826.74,557.8 -1304.86,179.3 -2251.13,338.67 -2251.13,1753.1 0,796.86 517.96,1344.7 1633.56,1344.7 657.41,0 1175.37,-229.1 1484.16,-567.76 9.96,149.41 39.84,318.74 79.68,438.27l1205.26 0z"/>
   <path id="_2" class="fil1" d="M25385.15 3742.82c-69.73,-1055.84 -707.21,-1613.64 -2121.64,-1613.64 -1494.12,0 -2061.88,627.52 -2061.88,1454.27 0,438.27 159.37,816.78 617.57,1105.64 348.62,219.14 806.82,358.59 1633.56,557.8 418.35,99.61 786.9,209.18 786.9,557.81 0,368.54 -408.39,508 -866.58,508 -627.53,0 -1016,-268.95 -1016,-727.14l-1334.74 0c19.92,996.08 856.62,1703.29 2360.7,1703.29 1394.5,0 2141.56,-607.61 2141.56,-1623.6 0,-637.49 -288.86,-976.16 -806.82,-1185.33 -378.51,-149.42 -906.43,-258.98 -1464.23,-418.36 -527.92,-149.41 -796.86,-268.94 -796.86,-557.8 0,-288.86 278.9,-408.39 766.97,-408.39 587.69,0 846.67,169.33 916.39,647.45l1245.1 0z"/>
   <path id="_3" class="fil1" d="M27118.32 4230.9c49.81,-677.34 478.12,-1075.77 996.08,-1075.77 508,0 986.11,348.63 1006.04,1075.77l-2002.12 0zm3336.86 816.78c0,-1942.35 -796.86,-2918.5 -2300.94,-2918.5 -1504.07,0 -2370.66,976.15 -2370.66,2490.19 0,1773.01 816.78,2669.48 2450.35,2669.48 1045.88,0 1852.7,-567.76 2151.52,-1573.8l-1334.74 0c-89.65,338.67 -458.19,547.84 -876.55,547.84 -637.48,0 -1055.84,-478.11 -1095.68,-1215.21l3376.7 0z"/>
   <path id="_4" class="fil1" d="M35345.91 7159.36l0 -3466.34c0,-976.16 -697.25,-1563.84 -1703.29,-1563.84 -657.41,0 -1255.06,328.7 -1444.31,766.97l0 -2430.42 -1294.9 0 0 6693.63 1294.9 0 0 -2808.93c0,-657.41 358.59,-1195.3 1006.04,-1195.3 587.68,0 836.7,229.1 836.7,966.2l0 3038.03 1304.86 0z"/>
   <path id="_5" class="fil1" d="M40326.29 7159.36l0 -4900.69 -1284.94 0 0 2828.85c0,647.45 -348.63,1115.61 -1006.04,1115.61 -547.84,0 -826.74,-298.83 -826.74,-916.39l0 -3028.07 -1294.9 0 0 3227.28c0,1075.76 687.29,1802.9 1663.45,1802.9 677.33,0 1185.33,-258.98 1523.99,-816.78l0 687.29 1225.18 0z"/>
   <path id="_6" class="fil1" d="M43214.91 6233.01c-617.57,0 -1095.69,-577.72 -1095.69,-1404.47 0,-1065.8 368.55,-1593.72 1085.73,-1593.72 757.01,0 1115.6,508 1115.6,1514.04 0,876.54 -458.19,1484.15 -1105.64,1484.15zm-1075.77 926.35l9.97 -597.65c308.78,498.04 766.97,727.14 1364.62,727.14 1235.13,0 2121.64,-976.15 2121.64,-2629.64 0,-1484.15 -747.06,-2530.03 -2012.07,-2530.03 -607.61,0 -1085.72,249.02 -1454.27,766.97l0 -2430.42 -1274.98 0 0 6693.63 1245.09 0z"/>
  </g>
 </g>
</svg>
