<?xml version="1.0" encoding="UTF-8"?>
<!DOCTYPE svg PUBLIC "-//W3C//DTD SVG 1.1//EN" "http://www.w3.org/Graphics/SVG/1.1/DTD/svg11.dtd">
<!-- Creator: CorelDRAW 2021 (64-Bit) -->
<svg xmlns="http://www.w3.org/2000/svg" xml:space="preserve" width="116.84mm" height="116.84mm" version="1.1" style="shape-rendering:geometricPrecision; text-rendering:geometricPrecision; image-rendering:optimizeQuality; fill-rule:evenodd; clip-rule:evenodd"
viewBox="0 0 11684 11684"
 xmlns:xlink="http://www.w3.org/1999/xlink"
 xmlns:xodm="http://www.corel.com/coreldraw/odm/2003">
 <defs>
  <style type="text/css">
   <![CDATA[
    .str0 {stroke:white;stroke-width:8.47;stroke-miterlimit:22.9256}
    .fil0 {fill:#4D4D4D}
   ]]>
  </style>
 </defs>
 <g id="Layer_x0020_1">
  <metadata id="CorelCorpID_0Corel-Layer"/>
  <g id="_1896956766240">
   <path class="fil0 str0" d="M3995.43 9417.18c136.98,92.18 2501.89,720.7 2734.42,723.37 537.89,6.2 802.46,-405.49 1042.87,-651.41l1740.45 -1742.54c254.03,-251.07 683.74,-514.54 629.1,-1104.11 -28.17,-303.69 -262.84,-1050.52 -352.71,-1363.94 -126.66,-441.76 -289.54,-979.83 -366.49,-1410.52 -549.65,-54.18 -868.58,-233.69 -1176.43,-529.84 -376.23,-361.91 -424.67,-509.15 -592.19,-1118.25 -556.02,-119.95 -1129.09,-300.32 -1673.87,-440.14 -550.58,-141.27 -1210.15,-457.12 -1654.12,-4.23 -725.51,740.17 -1423.38,1430.86 -2155.85,2160.6 -931.21,927.68 -699.32,881.73 -107.78,3087.64 40.22,149.85 70.17,271.88 107.61,425.54 139.87,573.99 287.8,129.97 991.3,630.55 725.51,516.22 679.85,1158.06 833.69,1337.28z"/>
   <path class="fil0 str0" d="M9824.27 3879.04c92.07,672.09 736.93,2454.38 739.01,2943.54 2.44,577.75 -439.73,862.6 -703.26,1123.93l-1840.35 1838.61c-1210.9,1222.55 -956.53,812.83 -4042.03,51.16 -85.87,128.29 -97.17,345.12 -160.79,505.04 -76.72,192.72 -163.64,298.29 -244.58,459.03 804.14,134.72 2996.15,938.22 3639.09,869.91 614.96,-65.42 1039.8,-625.39 1334.67,-917.25l2256.21 -2257.14c307.68,-307.79 850.38,-714.67 876.92,-1379 20.75,-518.13 -752.22,-2823.07 -899.51,-3651.67 -201.36,82.52 -255.59,153.21 -451.91,238.91 -150.65,65.82 -364.69,97.34 -503.47,174.93z"/>
   <path class="fil0 str0" d="M878.23 8108.64c176.5,-73.42 247.37,-167.87 460.25,-245.8 151.64,-55.51 376.92,-71.21 504.28,-157.2 -126.02,-467.26 -734.55,-2549.18 -721.34,-2894.81 20.81,-544.5 472.53,-846.27 727.08,-1098.73l1816.24 -1813.81c233.4,-230.61 573.94,-714.91 1050.12,-771.69 432.37,-51.51 2366.94,571.9 2941.91,698.57 41.26,-471.49 174.3,-630.66 324.95,-968.76 -587.2,-182.7 -3064.41,-903.29 -3553.8,-843.26 -573.47,70.35 -1003.58,635.41 -1289.13,917.54l-2232.68 2231.7c-302.99,301.25 -854.09,712.19 -899.99,1355.71 -27.75,389.15 288.97,1395.05 402.25,1801 139.99,501.39 396.28,1299.04 469.86,1789.54z"/>
   <path class="fil0 str0" d="M9231.39 478.67c-2023.22,462.91 -1315.03,3420.76 665.6,2988.16 1937.75,-423.22 1319.72,-3442.38 -665.6,-2988.16z"/>
   <path class="fil0 str0" d="M1734.06 8137.09c-2020.38,443.32 -1313.06,3473.25 699.15,2977.14 1880.5,-463.66 1300.43,-3415.89 -699.15,-2977.14z"/>
  </g>
 </g>
</svg>
