<?xml version="1.0" encoding="UTF-8"?>
<!DOCTYPE svg PUBLIC "-//W3C//DTD SVG 1.1//EN" "http://www.w3.org/Graphics/SVG/1.1/DTD/svg11.dtd">
<!-- Creator: CorelDRAW 2021 (64-Bit) -->
<svg xmlns="http://www.w3.org/2000/svg" xml:space="preserve" width="64.3466mm" height="25.4mm" version="1.1" style="shape-rendering:geometricPrecision; text-rendering:geometricPrecision; image-rendering:optimizeQuality; fill-rule:evenodd; clip-rule:evenodd"
viewBox="0 0 6434.66 2540"
 xmlns:xlink="http://www.w3.org/1999/xlink"
 xmlns:xodm="http://www.corel.com/coreldraw/odm/2003">
 <defs>
  <style type="text/css">
   <![CDATA[
    .fil0 {fill:white}
    .fil1 {fill:white;fill-rule:nonzero}
   ]]>
  </style>
 </defs>
 <g id="Layer_x0020_1">
  <metadata id="CorelCorpID_0Corel-Layer"/>
  <path class="fil0" d="M583.98 1630.47c12.84,8.64 234.49,67.55 256.28,67.8 50.42,0.58 75.21,-38.01 97.75,-61.06l163.12 -163.32c23.81,-23.53 64.09,-48.22 58.96,-103.48 -2.63,-28.46 -24.63,-98.46 -33.05,-127.84 -11.87,-41.4 -27.14,-91.83 -34.35,-132.2 -51.52,-5.08 -81.41,-21.9 -110.26,-49.66 -35.27,-33.92 -39.81,-47.72 -55.51,-104.81 -52.11,-11.24 -105.82,-28.15 -156.88,-41.25 -51.61,-13.24 -113.43,-42.84 -155.04,-0.4 -68,69.38 -133.4,134.11 -202.05,202.51 -87.28,86.94 -65.55,82.64 -10.11,289.39 3.77,14.04 6.58,25.48 10.09,39.88 13.11,53.8 26.97,12.18 92.91,59.1 68,48.38 63.72,108.54 78.14,125.34z"/>
  <path class="fil0" d="M1130.29 1111.4c8.63,62.99 69.07,230.04 69.26,275.89 0.23,54.15 -41.21,80.85 -65.91,105.34l-172.49 172.32c-113.49,114.59 -89.65,76.19 -378.84,4.8 -8.05,12.02 -9.11,32.34 -15.07,47.33 -7.19,18.07 -15.34,27.96 -22.92,43.03 75.37,12.62 280.81,87.93 341.07,81.53 57.64,-6.13 97.46,-58.62 125.1,-85.97l211.46 -211.55c28.84,-28.85 79.7,-66.99 82.19,-129.25 1.95,-48.56 -70.5,-264.59 -84.31,-342.26 -18.87,7.74 -23.95,14.36 -42.35,22.4 -14.12,6.17 -34.18,9.12 -47.19,16.39z"/>
  <path class="fil0" d="M291.82 1507.82c16.54,-6.88 23.18,-15.73 43.13,-23.03 14.22,-5.21 35.33,-6.68 47.27,-14.74 -11.81,-43.79 -68.85,-238.92 -67.61,-271.32 1.95,-51.03 44.29,-79.31 68.15,-102.97l170.22 -170.01c21.88,-21.61 53.8,-67 98.43,-72.32 40.52,-4.83 221.84,53.6 275.73,65.47 3.87,-44.19 16.34,-59.11 30.46,-90.8 -55.04,-17.12 -287.22,-84.66 -333.09,-79.03 -53.75,6.59 -94.06,59.55 -120.82,86l-209.26 209.16c-28.4,28.24 -80.05,66.75 -84.35,127.07 -2.6,36.47 27.08,130.75 37.7,168.8 13.12,46.99 37.14,121.75 44.04,167.72z"/>
  <path class="fil0" d="M1074.72 792.7c-189.63,43.39 -123.25,320.61 62.39,280.07 181.61,-39.67 123.69,-322.64 -62.39,-280.07z"/>
  <path class="fil0" d="M372.03 1510.49c-189.36,41.55 -123.07,325.53 65.53,279.04 176.25,-43.46 121.88,-320.16 -65.53,-279.04z"/>
  <polygon class="fil1" points="2176.91,1686.68 2362.05,1040.64 2186.1,1040.64 2087.62,1455.58 1986.51,1040.64 1813.18,1040.64 1723.89,1455.58 1618.84,1040.64 1438.95,1040.64 1622.78,1686.68 1797.42,1686.68 1899.84,1311.14 2002.26,1686.68 "/>
  <path id="_1" class="fil1" d="M2745.47 1441.13c-1.31,76.16 -66.97,140.5 -154.94,140.5 -53.84,0 -82.73,-23.63 -82.73,-72.22 0,-55.15 31.52,-82.72 128.68,-101.11 63.03,-11.81 93.23,-21 110.3,-38.07l-1.31 70.9zm172.02 245.55l0 -408.37c0,-162.82 -70.91,-254.74 -275.75,-254.74 -207.47,0 -281,93.23 -283.63,227.16l158.88 0c7.88,-57.77 39.4,-95.85 116.87,-95.85 66.97,0 108.98,24.95 108.98,66.97 0,44.64 -23.63,61.71 -108.98,73.53 -172.02,23.63 -296.76,44.64 -296.76,231.1 0,105.05 68.28,177.27 215.35,177.27 86.66,0 154.94,-30.2 195.65,-74.85 1.31,19.7 5.25,42.02 10.5,57.78l158.89 0z"/>
  <path id="_2" class="fil1" d="M3545.14 1236.29c-9.19,-139.19 -93.23,-212.72 -279.69,-212.72 -196.96,0 -271.81,82.72 -271.81,191.71 0,57.78 21.01,107.67 81.42,145.75 45.95,28.89 106.36,47.27 215.34,73.54 55.15,13.13 103.74,27.57 103.74,73.53 0,48.58 -53.84,66.97 -114.24,66.97 -82.73,0 -133.94,-35.46 -133.94,-95.86l-175.95 0c2.62,131.31 112.92,224.54 311.2,224.54 183.83,0 282.31,-80.1 282.31,-214.03 0,-84.04 -38.08,-128.69 -106.36,-156.26 -49.89,-19.7 -119.49,-34.14 -193.02,-55.15 -69.59,-19.7 -105.05,-35.45 -105.05,-73.53 0,-38.08 36.77,-53.84 101.11,-53.84 77.47,0 111.61,22.32 120.8,85.35l164.14 0z"/>
  <path id="_3" class="fil1" d="M3773.62 1300.63c6.57,-89.29 63.03,-141.81 131.31,-141.81 66.97,0 130,45.96 132.62,141.81l-263.93 0zm439.89 107.67c0,-256.05 -105.05,-384.73 -303.33,-384.73 -198.27,0 -312.51,128.68 -312.51,328.27 0,233.73 107.67,351.91 323.02,351.91 137.87,0 244.23,-74.85 283.62,-207.47l-175.95 0c-11.82,44.65 -60.4,72.22 -115.55,72.22 -84.04,0 -139.19,-63.03 -144.44,-160.2l445.14 0z"/>
  <path id="_4" class="fil1" d="M4858.23 1686.68l0 -456.96c0,-128.68 -91.92,-206.15 -224.54,-206.15 -86.66,0 -165.45,43.33 -190.4,101.11l0 -320.4 -170.7 0 0 882.4 170.7 0 0 -370.29c0,-86.67 47.27,-157.57 132.62,-157.57 77.48,0 110.3,30.2 110.3,127.37l0 400.49 172.02 0z"/>
  <path id="_5" class="fil1" d="M5514.77 1686.68l0 -646.04 -169.39 0 0 372.92c0,85.35 -45.96,147.06 -132.62,147.06 -72.22,0 -108.99,-39.39 -108.99,-120.8l0 -399.18 -170.7 0 0 425.44c0,141.81 90.6,237.67 219.29,237.67 89.29,0 156.25,-34.14 200.9,-107.67l0 90.6 161.51 0z"/>
  <path id="_6" class="fil1" d="M5895.57 1564.56c-81.41,0 -144.44,-76.16 -144.44,-185.14 0,-140.5 48.58,-210.1 143.13,-210.1 99.79,0 147.06,66.97 147.06,199.59 0,115.55 -60.4,195.65 -145.75,195.65zm-141.81 122.12l1.31 -78.79c40.71,65.66 101.11,95.86 179.89,95.86 162.83,0 279.69,-128.68 279.69,-346.66 0,-195.65 -98.48,-333.52 -265.24,-333.52 -80.1,0 -143.13,32.83 -191.71,101.11l0 -320.4 -168.08 0 0 882.4 164.14 0z"/>
 </g>
</svg>
